<svg xmlns="http://www.w3.org/2000/svg" xmlns:xlink="http://www.w3.org/1999/xlink" width="19" height="21" viewBox="0 0 19 21">
  <defs>
    <style>
      .cls-1 {
        fill: none;
      }

      .cls-2 {
        clip-path: url(#clip-path);
      }

      .cls-3 {
        fill: #bcbccb;
      }

      .cls-4 {
        fill: #ffc06a;
        stroke: #fff;
        stroke-width: 2px;
      }

      .cls-5 {
        stroke: none;
      }
    </style>
    <clipPath id="clip-path">
      <rect class="cls-1" width="19" height="21"/>
    </clipPath>
  </defs>
  <g id="icon_notification" class="cls-2">
    <path id="Notification_Icon" data-name="Notification Icon" class="cls-3" d="M-1371,81h4a2.006,2.006,0,0,1-2,2A2.006,2.006,0,0,1-1371,81Zm-5-1a.945.945,0,0,1-1-1,.945.945,0,0,1,1-1h.5a4.354,4.354,0,0,0,1.5-3V72a4.952,4.952,0,0,1,5-5,4.951,4.951,0,0,1,5,5v3a4.351,4.351,0,0,0,1.5,3h.5a.945.945,0,0,1,1,1,.945.945,0,0,1-1,1Z" transform="translate(1377 -62)"/>
    <g id="Notification_Badge" data-name="Notification Badge" class="cls-4" transform="translate(11)">
      <circle class="cls-5" cx="4" cy="4" r="4"/>
      <circle class="cls-1" cx="4" cy="4" r="5"/>
    </g>
  </g>
</svg>
