<svg xmlns="http://www.w3.org/2000/svg" xmlns:xlink="http://www.w3.org/1999/xlink" width="15.6" height="14.201" viewBox="0 0 15.6 14.201">
  <defs>
    <style>
      .cls-1 {
        fill: none;
      }

      .cls-2 {
        clip-path: url(#clip-path);
      }

      .cls-3 {
        fill: #4ad991;
      }
    </style>
    <clipPath id="clip-path">
      <rect class="cls-1" width="15.6" height="14.201"/>
    </clipPath>
  </defs>
  <g id="icon_process" class="cls-2">
    <path id="icon_process-2" data-name="icon_process" class="cls-3" d="M-6851.2-1475.1a6.973,6.973,0,0,1-4.9,2,6.721,6.721,0,0,1-4.9-2,6.583,6.583,0,0,1-1.9-3.8l2-.3a5.405,5.405,0,0,0,1.4,2.7,5.012,5.012,0,0,0,7,0l-2.1-2.1,6.4-.7-.8,6.4Zm-11.9-12,2.2,2.2a7.063,7.063,0,0,1,9.9,0,6.592,6.592,0,0,1,1.9,3.8l-2,.3a5.4,5.4,0,0,0-1.4-2.7,5.012,5.012,0,0,0-7,0l2.1,2.1-6.4.7Z" transform="translate(6863.8 1487.101)"/>
  </g>
</svg>
